<svg width="800" height="600" viewBox="0 0 800 600" fill="none" xmlns="http://www.w3.org/2000/svg">
  <!-- Background Circle -->
  <circle cx="400" cy="300" r="250" fill="#F3F4F6" />
  
  <!-- 4 (Left) -->
  <path d="M250 150V350" stroke="#014DAF" stroke-width="40" stroke-linecap="round"/>
  <path d="M180 280H320" stroke="#014DAF" stroke-width="40" stroke-linecap="round"/>
  <path d="M320 150V350" stroke="#014DAF" stroke-width="40" stroke-linecap="round"/>
  
  <!-- 0 -->
  <circle cx="400" cy="250" r="60" stroke="#014DAF" stroke-width="40"/>
  
  <!-- 4 (Right) -->
  <path d="M550 150V350" stroke="#014DAF" stroke-width="40" stroke-linecap="round"/>
  <path d="M480 280H620" stroke="#014DAF" stroke-width="40" stroke-linecap="round"/>
  <path d="M620 150V350" stroke="#014DAF" stroke-width="40" stroke-linecap="round"/>
  
  <!-- Decorative Elements -->
  <circle cx="200" cy="150" r="15" fill="#014DAF"/>
  <circle cx="600" cy="450" r="15" fill="#014DAF"/>
  <circle cx="700" cy="200" r="10" fill="#014DAF"/>
  <circle cx="100" cy="400" r="10" fill="#014DAF"/>
  
  <!-- Cross Lines -->
  <path d="M650 100L700 150" stroke="#014DAF" stroke-width="8" stroke-linecap="round"/>
  <path d="M100 500L150 550" stroke="#014DAF" stroke-width="8" stroke-linecap="round"/>
  
  <!-- Curved Lines -->
  <path d="M50 200C100 150 150 150 200 200" stroke="#014DAF" stroke-width="8" stroke-linecap="round" fill="none"/>
  <path d="M600 400C650 350 700 350 750 400" stroke="#014DAF" stroke-width="8" stroke-linecap="round" fill="none"/>
</svg>